<svg xmlns="http://www.w3.org/2000/svg" viewBox="0 0 19.473 19.473">
  <defs>
    <linearGradient gradientUnits="userSpaceOnUse" y2="19.473" y1="0" x2="0" x1="0" id="a">
      <stop stop-color="#04bb50" offset="0"/>
      <stop stop-color="#0da24b" offset="1"/>
    </linearGradient>
  </defs>
  <path fill="url(#a)" d="M9.734 0C4.367 0 0 4.368 0 9.736s4.368 9.737 9.736 9.737 9.737-4.369 9.737-9.737a9.636 9.636 0 00-.967-4.236.81.81 0 10-1.459.707 8.03 8.03 0 01.803 3.53c0 4.472-3.64 8.113-8.114 8.113s-8.113-3.64-8.113-8.114 3.64-8.113 8.113-8.113c1.854 0 3.595.605 5.037 1.75.847.673 1.857-.597 1.01-1.27A9.752 9.752 0 009.734 0zm.002 3.245a.812.812 0 00-.81.812v5.68a.81.81 0 00.808.81h4.059c1.017-.062 1.017-1.56 0-1.621h-3.246v-4.87a.812.812 0 00-.81-.812z"/>
</svg>