<?xml version="1.0" standalone="no"?>
<!DOCTYPE svg PUBLIC "-//W3C//DTD SVG 20010904//EN"
 "http://www.w3.org/TR/2001/REC-SVG-20010904/DTD/svg10.dtd">
<svg version="1.0" xmlns="http://www.w3.org/2000/svg"
 width="700.000000pt" height="700.000000pt" viewBox="0 0 700.000000 700.000000"
 preserveAspectRatio="xMidYMid meet">
<metadata>
Created by potrace 1.11, written by Peter Selinger 2001-2013
</metadata>
<g transform="translate(0.000000,700.000000) scale(0.100000,-0.100000)"
fill="#000000" stroke="none">
<path d="M3278 6996 c-1 -2 -41 -6 -88 -10 -81 -6 -116 -10 -185 -21 -16 -3
-48 -7 -70 -11 -36 -5 -205 -39 -247 -50 -10 -2 -27 -6 -39 -9 -11 -2 -29 -7
-39 -10 -10 -3 -27 -7 -37 -9 -10 -2 -76 -23 -148 -46 -986 -321 -1783 -1062
-2169 -2020 -68 -167 -122 -332 -152 -460 -40 -174 -66 -313 -79 -430 -27
-228 -27 -687 -1 -827 2 -10 7 -43 10 -73 7 -62 12 -94 26 -165 6 -27 12 -59
14 -71 31 -161 101 -391 178 -584 50 -125 166 -366 213 -440 14 -22 25 -42 25
-45 0 -4 45 -72 99 -153 199 -295 395 -512 687 -762 83 -72 421 -310 440 -310
2 0 23 -12 46 -26 74 -47 312 -162 439 -212 272 -108 552 -184 804 -217 22 -2
56 -7 75 -10 196 -28 655 -27 850 1 593 86 1058 261 1530 577 551 368 1001
919 1270 1552 113 265 215 653 245 930 4 33 9 71 11 85 3 14 6 138 8 275 3
226 -1 343 -19 475 -4 25 -8 61 -10 80 -39 351 -253 986 -373 1103 -118 115
-306 108 -417 -15 -84 -93 -97 -220 -36 -345 74 -152 147 -357 195 -548 20
-78 46 -219 61 -330 18 -131 25 -479 12 -600 -4 -33 -9 -85 -12 -115 -21 -223
-105 -537 -207 -780 -192 -456 -530 -893 -913 -1181 -39 -29 -71 -56 -73 -61
-2 -4 -8 -8 -12 -8 -5 0 -37 -20 -72 -44 -331 -229 -816 -415 -1200 -462 -24
-2 -53 -7 -65 -9 -109 -23 -562 -24 -703 -1 -14 2 -47 7 -75 11 -60 8 -278 52
-320 64 -192 59 -254 80 -358 123 -821 337 -1448 1032 -1696 1880 -41 140 -77
313 -96 458 -26 193 -23 582 5 755 5 33 12 77 16 99 6 43 11 69 19 106 3 14 7
34 9 45 10 48 50 188 82 284 138 414 386 813 699 1126 146 147 373 330 507
410 320 191 556 291 873 371 37 10 270 52 315 58 161 20 412 26 600 12 136 -9
143 -10 375 -51 195 -35 560 -166 745 -268 30 -16 75 -41 99 -54 73 -40 210
-132 306 -204 107 -81 161 -105 235 -107 195 -5 348 212 279 395 -25 66 -81
121 -236 231 -346 247 -718 422 -1126 531 -114 31 -233 58 -297 67 -19 3 -60
9 -91 15 -31 5 -81 12 -110 15 -30 3 -67 8 -84 10 -34 6 -541 14 -547 10z"/>
<path d="M3428 5823 c-102 -26 -188 -112 -208 -208 -7 -34 -9 -399 -8 -1125
l3 -1075 24 -45 c29 -54 77 -102 133 -132 l43 -23 805 0 805 0 47 23 c106 53
163 152 156 277 -6 112 -58 197 -153 248 -40 22 -46 22 -662 25 l-623 3 0 905
0 906 -30 64 c-61 128 -196 191 -332 157z"/>
</g>
</svg>
