<svg xmlns="http://www.w3.org/2000/svg" xmlns:xlink="http://www.w3.org/1999/xlink" viewBox="0 0 115.746 19.472">
  <defs>
    <linearGradient id="a" x1="0" x2="0" y1="0" y2="1">
      <stop offset="0" stop-color="#04bb50"/>
      <stop offset="1" stop-color="#0da24b"/>
    </linearGradient>
  </defs>
  <path d="M9.734 0C4.367 0 0 4.368 0 9.736s4.368 9.737 9.736 9.737 9.737-4.369 9.737-9.737a9.636 9.636 0 00-.967-4.236.81.81 0 00-1.082-.377.811.811 0 00-.377 1.084 8.03 8.03 0 01.803 3.53c0 4.472-3.64 8.113-8.114 8.113s-8.113-3.64-8.113-8.114 3.64-8.113 8.113-8.113c1.854 0 3.595.605 5.037 1.75a.811.811 0 001.01-1.27A9.752 9.752 0 009.734 0zm28.803 2.814v13.62h2.092v-7.4l4.432 7.177h.015L49.5 9.039v7.393h2.092V2.814h-.156l-6.368 9.692-6.375-9.692h-.156zm29.914.051c-2.398 0-4.29 1.52-4.29 3.703 0 2.092 1.736 2.903 3.3 3.598 1.553.67 3.305 1.415 3.305 2.646 0 1.018-1.132 1.737-2.63 1.737-1.281 0-2.389-.597-2.984-1.639L63.5 14.094c.76 1.537 2.423 2.562 4.613 2.562 2.703 0 4.752-1.522 4.752-3.886 0-2.1-1.636-3.117-3.744-4.043-1.62-.694-2.853-1.066-2.853-2.108 0-.943.977-1.705 2.2-1.705.968 0 1.885.505 2.298 1.406l1.554-1.074c-.546-1.463-1.967-2.38-3.869-2.38zm-14.305.239v13.33h7.94V14.35h-5.848v-3.688h5.045V8.578h-5.045V5.164h5.848v-2.06h-7.94zm33.008 0v13.33h7.938V14.35h-5.846v-3.688h5.043V8.578h-5.043V5.164h5.846v-2.06h-7.938zm10.12 0v13.33h7.939V14.35h-5.848v-3.688h5.045V8.578h-5.045V5.164h5.848v-2.06h-7.94zm-74.313.001V5.18h3.57v11.254h2.102V5.18h3.57V3.105h-9.242zm10.912 0v13.329h2.092V3.105h-2.092zm40.78 0v13.329h2.083v-5.631h5.772v5.63H84.6V3.106h-2.092v5.622h-5.772V3.105h-2.084zm31.849 0V5.18h3.572v11.254h2.1V5.18h3.572V3.105h-9.244zm-96.766.14a.812.812 0 00-.81.812v5.68a.81.81 0 00.808.81h4.059a.812.812 0 000-1.621h-3.246v-4.87a.812.812 0 00-.81-.812z" fill="url(#a)"/>
</svg>