<svg xmlns="http://www.w3.org/2000/svg" viewBox="0 0 115.746 19.472">
  <path d="M32.203 3.105H22.96V5.18h3.572v11.253h2.1V5.18h3.572zm1.671 13.328h2.091V3.105h-2.091zM51.435 2.815l-6.366 9.69-6.375-9.69h-.157v13.618h2.092v-7.4l4.431 7.177h.017L49.5 9.04v7.392h2.092V2.815zm10.65 2.349v-2.06h-7.938v13.33h7.938V14.35h-5.846v-3.688h5.044V8.578h-5.044V5.164zm6.027 11.492c2.704 0 4.754-1.521 4.754-3.886 0-2.1-1.637-3.117-3.745-4.043-1.62-.694-2.853-1.066-2.853-2.108 0-.943.976-1.704 2.2-1.704.967 0 1.885.505 2.298 1.406l1.555-1.075c-.546-1.463-1.968-2.381-3.87-2.381-2.398 0-4.291 1.521-4.291 3.704 0 2.092 1.736 2.902 3.3 3.597 1.553.67 3.306 1.414 3.306 2.646 0 1.017-1.132 1.736-2.629 1.736-1.282 0-2.39-.595-2.985-1.637L63.5 14.093c.76 1.538 2.422 2.563 4.613 2.563zM82.507 3.105v5.622h-5.771V3.105h-2.084v13.328h2.084v-5.63h5.771v5.63H84.6V3.105zm12.584 2.059v-2.06h-7.937v13.33h7.937V14.35h-5.845v-3.688h5.043V8.578h-5.043V5.164zm10.121 0v-2.06h-7.938v13.33h7.938V14.35h-5.846v-3.688h5.044V8.578h-5.044V5.164zm10.534-2.059h-9.244V5.18h3.572v11.253h2.1V5.18h3.572zM17.423 5.123a.811.811 0 00-.377 1.084 8.03 8.03 0 01.803 3.529c0 4.473-3.64 8.113-8.113 8.113-4.474 0-8.113-3.64-8.113-8.113 0-4.474 3.64-8.113 8.113-8.113 1.854 0 3.595.605 5.037 1.75a.811.811 0 101.01-1.27A9.752 9.752 0 009.735 0C4.368 0 0 4.368 0 9.736s4.368 9.736 9.736 9.736 9.736-4.368 9.736-9.736a9.636 9.636 0 00-.966-4.236.81.81 0 00-1.083-.377zm0 0"/>
  <path d="M9.736 3.245a.812.812 0 00-.811.812v5.679a.81.81 0 00.81.811h4.057a.812.812 0 000-1.622h-3.245V4.057a.812.812 0 00-.811-.812zm0 0"/>
</svg>